/* XPM */
static char *_2344_09c0fe7228d44e0e2989edbc0dab01ac3811d94a2c192df0272f44e95cee759f[] = {
/* columns rows colors chars-per-pixel */
"50 50 6 1 ",
"  c #000001",
". c #010001",
"X c #010101",
"o c #010102",
"O c #020102",
"+ c #020203",
/* pixels */
"           o          o o                o        ",
"           oo          oo        oo         o   o ",
"                                    o             ",
" o  o              oo          o    o    o        ",
"  ooo  o         o  o    o         o              ",
"    o       o.    oo                              ",
"           o   o              oo     oo.          ",
"     o         o       o ooo o.o  o    o          ",
"             o o  o  o        o                 o ",
"                  o         o o                   ",
"     o o  X     o              oo         o       ",
"            oooo         o               oo  o    ",
"       o      o              .  o        o        ",
"                  .                     o         ",
"  o              o                      o         ",
"  o                  o            .               ",
" o                 oo        o          o     o   ",
"oo    o       o     o o    o  oo                o ",
"       o    oo        oo      o    .o             ",
"                                            o    o",
" o oo     oo.                        oo           ",
"          +o       o   o     o    o         oo    ",
"       o   X           o         o.+  .     o     ",
"        oo                       o o             o",
"       o      o       oo               o          ",
"               .ooo            oo                 ",
"                        o  o   .oo        oo oo   ",
"                      o o  o                  o   ",
"o   oo         o   oo      ooo               o    ",
"  o                 o                             ",
"           o   o   o          o                   ",
"       o   O                                o     ",
"      oo o             o             oo           ",
"               o     o                      o     ",
"          o                          o     o o    ",
"               o o                .            o  ",
"              oo        o         o               ",
"       o      o             oo           oo       ",
"                   oX      oo o                   ",
"                         .                   .    ",
"   .         .       o      o    o oo             ",
"                  oo         oo           o       ",
"oo    o       o  X     o              o    o    oo",
"oo          ooo   o           o     oo            ",
"o        o        o           o                   ",
"      o ooo                     o      o         o",
"o                                                 ",
"                                         X        ",
"         o          o  o  o        o    oo        ",
"         o        o      o                        "
};
