/* XPM */
static char *_194_f555f6fc0631ceae71bb3f1f3e19acc6f24ce6307983efb3a71a3c253805162f[] = {
/* columns rows colors chars-per-pixel */
"50 50 148 2 ",
"   c #010101",
".  c #0B0B0B",
"X  c #131313",
"o  c #1B1B1B",
"O  c #350101",
"+  c #3A0800",
"@  c #350E0C",
"#  c #3E2E1D",
"$  c #242424",
"%  c #2B2B2B",
"&  c #2E3233",
"*  c #333334",
"=  c #313739",
"-  c #3B3C3C",
";  c #401200",
":  c #660403",
">  c #6A0100",
",  c #660907",
"<  c #6B0A03",
"1  c #660508",
"2  c #660908",
"3  c #690B09",
"4  c #730401",
"5  c #740D00",
"6  c #67110F",
"7  c #69110F",
"8  c #761201",
"9  c #7F1100",
"0  c #7D1E00",
"q  c #661110",
"w  c #6A1614",
"e  c #671B17",
"r  c #6B1914",
"t  c #661E1D",
"y  c #691B19",
"u  c #721D1A",
"i  c #4E2600",
"p  c #4D2A02",
"a  c #452A0F",
"s  c #452B10",
"d  c #7E2401",
"f  c #6A221E",
"g  c #702013",
"h  c #772F18",
"j  c #793418",
"k  c #4D3433",
"l  c #403F3F",
"z  c #6A2420",
"x  c #6A2925",
"c  c #622F2C",
"v  c #60312E",
"b  c #69312E",
"n  c #673634",
"m  c #693633",
"M  c #6B3935",
"N  c #663F3D",
"B  c #693D3B",
"V  c #7E421F",
"C  c #6B4226",
"Z  c #6E4922",
"A  c #68413F",
"S  c #70493A",
"D  c #7E5A34",
"F  c #7C5C3B",
"G  c #7E603B",
"H  c #3E4141",
"J  c #3C4249",
"K  c #434343",
"L  c #4B4B4B",
"P  c #474D52",
"I  c #525252",
"U  c #5C5252",
"Y  c #5A5957",
"T  c #505758",
"R  c #5B5B5B",
"E  c #674542",
"W  c #684543",
"Q  c #684946",
"!  c #664E4D",
"~  c #684B49",
"^  c #68504E",
"/  c #654F51",
"(  c #665253",
")  c #685351",
"_  c #655B57",
"`  c #6B5A53",
"'  c #655658",
"]  c #665A5A",
"[  c #685E5D",
"{  c #6F6456",
"}  c #656059",
"|  c #6F6658",
" . c #6D685D",
".. c #726452",
"X. c #706758",
"o. c #716858",
"O. c #595F63",
"+. c #645D60",
"@. c #5E6161",
"#. c #656565",
"$. c #686767",
"%. c #666967",
"&. c #6A6867",
"*. c #62666B",
"=. c #656C6C",
"-. c #6C6C6C",
";. c #706E6E",
":. c #636E73",
">. c #6B6D72",
",. c #657273",
"<. c #6D7273",
"1. c #6B777C",
"2. c #717171",
"3. c #777C7C",
"4. c #802300",
"5. c #8A2700",
"6. c #812800",
"7. c #873303",
"8. c #8A3101",
"9. c #8B3902",
"0. c #903800",
"q. c #803F18",
"w. c #8D4709",
"e. c #8E490B",
"r. c #944502",
"t. c #994700",
"y. c #954A03",
"u. c #9B4C00",
"i. c #934E08",
"p. c #975004",
"a. c #9B5302",
"s. c #9E5902",
"d. c #95510A",
"f. c #894F19",
"g. c #8F5114",
"h. c #87531E",
"j. c #8B541B",
"k. c #8C581E",
"l. c #A35100",
"z. c #A95100",
"x. c #A25A01",
"c. c #A95B02",
"v. c #A0570A",
"b. c #895520",
"n. c #82572D",
"m. c #955B22",
"M. c #805C34",
"N. c #866540",
/* pixels */
"> > > > > > ( ' > > > > : > > > > > y ,.f > > > > > > : > : > ( ] > > > > > > : > : > e ,.f > > > > ",
"d d d 6.d d ` ' > 0 d d d d 6.6.d d j :.f 4 d d d d d d d d 4.` ' > 0 d d d d d d d 4.j ,.t 4 6.d d ",
"a.a.a.a.a.l...' > 9.x.a.a.a.a.a.a.a.j.:.z 5 s.a.a.a.a.a.a.l.a...' > 9.x.a.a.a.a.l.a.a.k.:.z 5 s.a.a.",
"u.u.u.u.u.u...' > 8.a.u.u.u.u.u.u.u.g.,.f 4 u.t.u.u.u.u.u.u.u...( > 8.a.u.u.u.u.u.u.u.g.:.z 4 a.u.t.",
"b.b.h.k.k.j.{ ] t V k.h.b.b.b.j.b.j.n.:.m f j.k.h.k.h.j.k.b.j.{ ] t V k.k.h.h.k.k.b.j.n.=.m g b.k.h.",
"*.*.:.:.:.:.=.=.<.:.:.:.:.*.:.:.:.:.:.&.>.,.:.:.:.*.:.:.:.:.:.=.=.<.:.:.:.:.*.:.:.:.:.:.$.,.,.:.:.,.",
"=.Q r y y y y y y y y w A &.f r y y y y e y y y y $.Q r y y y y y y y y q A -.f y y y y t y y y y y ",
"=.B > 5 8 5 8 5 8 5 5 5 M =.3 > 8 5 5 8 8 8 5 5 8 $.B > 5 8 5 5 8 5 8 5 5 M =.3 4 5 5 5 5 5 5 8 5 5 ",
":.B > y.a.a.a.a.a.p.p.a.M.=.3 d s.p.p.p.a.a.a.a.d.-.B > y.a.a.a.a.a.a.d.a.M.*.3 d s.a.a.a.p.a.a.a.a.",
"=.B > r.a.u.u.u.u.u.u.u.D *.3 0 a.u.a.u.u.u.u.u.u.=.B > r.u.u.u.u.u.u.u.u.M.*.3 0 a.u.u.u.u.u.u.u.u.",
"-.N < w.d.d.i.d.d.d.i.u.D *.q d d.d.i.i.i.i.i.y.e.%.A < w.d.e.d.i.i.i.i.t.D *.7 d d.i.d.d.d.d.i.i.d.",
":.=.=.-.=.=.&.&.=.=.>.=.-.>.-.;.;.-.;.;.;.>.;.;.;.;.>.;.;.-.;.;.;.-.;.;.;.-.,.=.=.=.=.-.#.=.=.=.=.=.",
"m m m m m m ] } b M m M k * * * * * * * * * * * * * * = & * * * * * * * * k m m n M m E =.W m m n n ",
"> > > > 4 > ) ' > > > 4 O                                                 O 4 > > > > w ,.t > > > > ",
"t.y.y.y.y.y...' > 7.y.t.D *.#.-                                     - %.*.D t.y.y.y.t.f.,.z 5 y.y.y.",
"a.u.a.u.u.u...' > 9.a.a.Z J &.I $ .         $ $ $ % X             $ I &.J Z l.a.u.a.u.j.:.z 5 a.a.u.",
"u.t.u.u.u.u...' > 8.u.z.i   R &.2.X       X 2.2.-.3.H           X 2.-.R   i z.t.t.u.u.j.:.t 4 u.u.u.",
"....X.X.X.X.&.&.' { | X.] Y #.%.#.Y -       . K &.7 v @..     - Y #.#.#.R _ ..X.o.| X.X.,.] ` o.X.X.",
"=.+./ / / ) ! ^ ( ( / ( U T #.*.#.<.I         - &.r v T .     I <.%.%.*.I R =./ / ( ( / ! ^ ) ) ) / ",
"=.B > > > > > > > > > 4 O   ] &.#.-.L         - -.<.-         L &.#.$.]   * -.3 > > > > > > > > > > ",
":.B > 9.9.9.9.9.9.9.9.9.C P &.&.#.$.+.K L -   - ;.&.-   K L K R =.%.&.$.L Y &.3 8 r.9.9.9.9.0.9.9.9.",
"=.B > y.a.l.a.a.a.a.p.l.F O.Y O.$.] #.-.-.#.. l -.-.l   #.-.-.[ ] &.O.Y R #.%.3 d a.a.a.a.u.u.l.a.a.",
">.B > r.l.t.u.u.u.u.t.z.p     $ <.3 y ,.%.%.%.#.%.#.#.$.#.%.,.w 3 <.$     * ;.1 0 l.u.u.u.u.u.u.u.u.",
"*.' n F M...M.F M.F F N.s   * L =.W m x ' $.%.#.#.&.%.%.*.' x B E -.L *   * >.B S F F F M.F M...M.F ",
"#.#.-.*.*.#.*.*.*.%.#.>.&   O.&.#.:.( > Q -.+.%.#.*.%.+.=.Q > ' :.%.&.+.  * ;.%.$.*.*.*.*.*.*.*.*.#.",
"> < > : : > ( [ < < > < O     % ;.#.%.#.*.] > B =.-.B > ] %.#.#.%.-.%     O < : : : > y ,.z > < : 1 ",
"4.6.6.6.d 4.` ' > 8 d 5.;     $ -.#.*.%.&.] x ! *.*.~ x [ $.$.#.#.-.%     ; 5.d 6.6.4.j ,.f 4 d 4.6.",
"a.a.a.a.a.l...' > 9.s.c.p     % -.#.#.#.#.$.,.$.%.#.&.<.#.#.#.#.#.2.$     p c.a.a.a.l.k.:.f 5 s.a.l.",
"u.u.u.u.u.u...( > 5.a.l.p       . Y 2.-.-.#.  l =.-.K   +.-.-.<.Y .       i z.t.u.u.t.g.:.z 4 u.u.t.",
"b.b.h.h.b.j...[ e f.b.m.a         - L K L H   - -.&.-   H L K L -         s m.h.b.b.j.n.=.m f j.b.b.",
"*.:.:.:.:.:.:.=.,.:.:.1.=                     - -.-.-                     * >.:.:.:.:.:.$.,.,.:.:.:.",
"-.W r y y y y w y y y u @                 . L R &.&.R L .                 * ;.f y y y y y y y y y y ",
":.B > 5 8 5 8 5 5 8 8 9 +             X X o -.&.$.*.&.-.$ . X             * -.3 4 8 8 8 5 5 8 5 5 5 ",
"=.B > y.a.p.a.a.a.a.p.c.p           o 2.&.-.-.-.#.#.&.=.&.$.2.o           * ;.2 d a.p.p.a.a.a.a.a.a.",
">.B > r.l.u.u.u.u.u.u.z.i           o &.&.+.o L -.-.L $ #.%.&.o           * -.2 0 a.a.u.u.u.u.u.u.u.",
"=.A : i.d.i.i.i.d.i.e.v.p           o #.@.T   * #.%.*   I @.#.o       .   * ;.q d d.i.d.d.d.d.d.d.i.",
"%.#.#.#.#.#.%.#.#.#.#.-.*                                                 * -.#.#.#.#.#.%.#.#.#.#.#.",
"#.%.#.%.$.$.#.&.%.%.%.-.L * * * * * * * * * * * * * * * * * * * * * * * * L &.%.$.$.$.*.%.%.&.#.#.%.",
"#.$.#.$.#.%.%.#.#.#.%.#.&.;.;.-.;.;.-.<.-.-.-.;.-.-.;.-.-.-.;.-.-.-.;.-.;.&.%.%.#.#.&.%.#.#.#.#.%.#.",
"3 3 3 3 3 > ( ] < 3 3 3 3 , 2 3 2 : t =.x < 2 2 , 2 2 2 , 2 : ( ] < 2 2 , 3 3 3 3 3 > z :.x < 3 3 3 ",
"0 4.0 4.0 4.` ] > 8 d d 0 d 0 0 d 0 h ,.f 4 d d 0 d 0 0 0 4.4.` ] > 8 d 0 d 0 0 0 d 0 h ,.z > 4.d d ",
"a.a.u.a.a.a...' > 9.x.a.a.a.a.a.a.l.j.:.f 5 a.a.a.a.a.l.a.a.u...' > 9.s.a.a.a.l.a.a.z.g.:.z 5 a.a.a.",
"u.u.u.u.t.u...' > 8.l.t.u.t.u.u.t.u.j.,.t 4 a.u.u.u.u.u.u.u.u...' > 5.u.t.u.u.u.u.u.u.g.:.f 4 u.y.t.",
"j.j.j.g.j.g.{ ] w q.j.g.j.j.g.j.j.g.n.*.b u g.j.j.j.j.g.f.j.g.{ ] w f.k.g.j.j.j.j.j.g.n.=.b g j.g.j.",
"*.:.:.:.:.:.=.=.,.:.:.,.=.*.,.:.:.,.:.=.:.,.:.:.:.*.=.:.:.,.:.=.=.,.:.:.,.:.*.:.:.:.:.,.=.>.,.:.:.:.",
"&.Q y f f t z z f z z y W $.x f f f f z f f z t z $.Q y f t f f f f f z y W &.x f f f f z z f f f f ",
"=.B > 5 5 5 5 5 5 5 5 4 M =.< 4 < 5 5 5 5 5 5 5 5 &.N 4 < 5 5 5 5 5 5 5 4 M =.< > 5 < 5 5 5 5 5 5 5 ",
"=.N > y.a.p.u.u.a.u.p.u.M.*.3 0 s.u.u.a.u.u.u.a.d.&.N > y.a.p.p.u.a.u.d.u.M.*.3 d a.u.u.u.a.p.u.u.a.",
">.B > r.a.u.u.a.u.p.u.u.D *.3 d a.u.p.u.p.u.p.u.u.=.A > r.a.p.u.u.u.u.y.u.D =.3 0 a.u.p.u.y.u.p.u.p.",
"=.B > y.u.u.u.u.p.u.p.u.D *.3 d a.u.u.u.u.p.u.a.y.=.B > r.u.u.u.p.u.p.u.u.D *.< d s.u.u.p.p.p.u.p.u."
};
