/* XPM */
static char *_601_be85b0ea37ce7431e41f073d6e3781cb00c6db6d63a14342bcf0ef413f486220[] = {
/* columns rows colors chars-per-pixel */
"50 50 15 1 ",
"  c black",
". c gray14",
"X c #252525",
"o c #3A3A3A",
"O c #565656",
"+ c gray49",
"@ c gray50",
"# c gray52",
"$ c #A4A4A4",
"% c #AFAFAF",
"& c #B1B1B1",
"* c gray73",
"= c #BCBCBC",
"- c #DFDFDF",
"; c white",
/* pixels */
"                                                  ",
"                                                  ",
"                                                  ",
"                                                  ",
"                                                  ",
"                        +---                      ",
"                        %;;-                      ",
"                        %;;-                      ",
"                        %;;-                      ",
"                    %%%%%;;-$$$.                  ",
"                    %;;;;;;;===$                  ",
"                    %;;;;;;;===$                  ",
"                    %;;;;;;;===$                  ",
"                    %;;;;;;;===$                  ",
"                    %;;;;;;;===$                  ",
"                    %;;;;;;;===$                  ",
"                    %;;;;;;;===$                  ",
"    +%%%%%%%%%%%%%%%%;;;=======$---@@&&&&&&&&&&@  ",
"    -;;;;;;;;;;;;;;;;;;;========;;;;;;;;;;;;;;;-  ",
"    -;;;;;;;;;;;;;;;;;;;========;;;;;;;;;;;;;;;-  ",
"    #****;;;;;;;;;;;;;;;========;;;;;;;;;;;-----  ",
"        O===========;;;;====;;;;===========$      ",
"        O===========;;;;====;;;;===========$      ",
"        O===========;;;;====;;;;===========$      ",
"        OOOOO=======;;;;====;;;;=======$$$$$      ",
"            O===;;;;;;;;;;;;;;;;=======$          ",
"            O===;;;;;;;;;;;;;;;;=======$          ",
"            O===;;;;;;;;;;;;;;;;=======$          ",
"            O===;;;;;;;;;;;;;;;;=======$          ",
"            *;;;;;;;========;;;;;;;;===$          ",
"            *;;;;;;;========;;;;;;;;===$          ",
"            *;;;;;;;========;;;;;;;;===$          ",
"            *;;;;;;;===$$$$$-;;;;;;;===$          ",
"        OOOO*;;;=======$    $=======;;;-$$$.      ",
"        O===;;;;=======$    $=======;;;;===$      ",
"        O===;;;;=======$    $=======;;;;===$      ",
"        O===;;;;===$$$$$    $$$$$===;;;;===$      ",
"        *;;;=======$            $=======;;;-      ",
"        *;;;=======$            $=======;;;-      ",
"        *;;;=======$            $=======;;;-      ",
"        *;;-$$$$$$$$            X$$$$$$$-;;-      ",
"        O==$                            $==$      ",
"        O==$                            $==$      ",
"        O==$                            $==$      ",
"        o$$$                            X$$$      ",
"                                                  ",
"                                                  ",
"                                                  ",
"                                                  ",
"                                                  "
};
