/* XPM */
static char *_8851_fb9343f60ceac745c9e4ced69d5d83525bf7a9839dbe740cc50362c29340053e[] = {
/* columns rows colors chars-per-pixel */
"50 50 135 2 ",
"   c black",
".  c #010101",
"X  c #020202",
"o  c gray1",
"O  c #040404",
"+  c gray2",
"@  c #060404",
"#  c #060606",
"$  c #090909",
"%  c #0B0B0B",
"&  c #0D0B0B",
"*  c #0C0C0C",
"=  c #0D0C0C",
"-  c #101010",
";  c #151515",
":  c #161515",
">  c gray9",
",  c gray10",
"<  c gray12",
"1  c #202020",
"2  c #222222",
"3  c #252525",
"4  c #262525",
"5  c gray15",
"6  c #272727",
"7  c #282828",
"8  c #292828",
"9  c gray16",
"0  c #2D2D2D",
"q  c #2F2F2F",
"w  c #323232",
"e  c gray20",
"r  c #343434",
"t  c #393939",
"y  c #3A3939",
"u  c #3A3A3A",
"i  c #3A3B3B",
"p  c #393D3E",
"a  c gray24",
"s  c #3F3F3F",
"d  c #6D0000",
"f  c #690F09",
"g  c #6A0C0C",
"h  c #6B1616",
"j  c #6B1812",
"k  c #403F3F",
"l  c #6A2925",
"z  c #6A2B26",
"x  c #622F2C",
"c  c #60312E",
"v  c #693835",
"b  c #693C3A",
"n  c #3E4141",
"m  c gray25",
"M  c #404242",
"N  c #444444",
"B  c gray27",
"V  c #494949",
"C  c gray29",
"Z  c #4C4B4B",
"A  c #4C4C4C",
"S  c #4D4C4C",
"D  c #505050",
"F  c #515151",
"G  c gray32",
"H  c gray34",
"J  c #505758",
"K  c #5A5A5A",
"L  c #5B5B5B",
"P  c gray36",
"I  c gray37",
"U  c #5F5F5F",
"Y  c #674542",
"T  c #674E4C",
"R  c #684948",
"E  c #675554",
"W  c #675555",
"Q  c #675A5A",
"!  c #665C5B",
"~  c #665F5F",
"^  c #685E5D",
"/  c #585F60",
"(  c #5E6161",
")  c #606060",
"_  c gray38",
"`  c #626262",
"'  c gray39",
"]  c #666161",
"[  c #666261",
"{  c #646363",
"}  c #646464",
"|  c #656464",
" . c #656565",
".. c #666464",
"X. c #666564",
"o. c #666565",
"O. c #646666",
"+. c #656666",
"@. c gray40",
"#. c #676666",
"$. c #666767",
"%. c #676767",
"&. c #686767",
"*. c #6B6867",
"=. c #666868",
"-. c #676868",
";. c #666869",
":. c #66696A",
">. c #666A6A",
",. c #666C6C",
"<. c #686868",
"1. c DimGray",
"2. c #696A6B",
"3. c #686B6B",
"4. c #6A6A6A",
"5. c #6B6A6A",
"6. c gray42",
"7. c #6C6B6B",
"8. c #6E6B6B",
"9. c #6B6C6C",
"0. c #6C6C6C",
"q. c #6D6D6D",
"w. c gray43",
"e. c #6F6F6F",
"r. c #706F6F",
"t. c #677171",
"y. c #657273",
"u. c #637475",
"i. c #6C7373",
"p. c #6E7373",
"a. c gray44",
"s. c #717171",
"d. c #727272",
"f. c #747474",
"g. c #777C7C",
/* pixels */
"                                                                                                    ",
"                                                                                                    ",
"                                                                                                    ",
"                                                                                                    ",
"                                                                                                    ",
"                                                                                                    ",
"                                                                                                    ",
"                                                                                                    ",
"                                                                                                    ",
"                                                                                                    ",
"                                                                                                    ",
"                                                                                                    ",
"                                                                                                    ",
"                            . X X           X X X X .             X X .                             ",
"                    X   w 6.` u   X                             X   u ` 6.w   X                     ",
"                    .   2 V 1.D 2 $   .   + 3 3 3 8 :   .       $ 2 D 1.V 2   .                     ",
"                          X L 4.d.;   X   - f.r.0.g.n   X   .   ; d.4.L X                           ",
"                    X   0 ` '  .} K a     O % M *.f x / &     a K }  .' ` 0   X                     ",
"                    X   9 K ' %.} a.F   o o   i 8.j c J =     F a.} %.' K 9   X                     ",
"                          X P <.} 5.Z   . X   u 0.i.p   X .   Z 5.} <.P X                           ",
"                    .   5 G @.1. .3.( N V s   u 0.7.y   s V N ( 3. .1.@.G 5   .                     ",
"                    X   q @.H I -.! ^ 7.r._ # m 6.6.m # _ r.7.^ ! -.I H @.q   X                     ",
"                          X   4 p.g h u.O.| &.#.@.@.#.&.| O.u.h g p.4   X                           ",
"                          X e S 2.Y v z E >.$.$.@.@.$.$.>.E z v Y 2.S e X                           ",
"                          X U 4.| y.W d R ,.] X.@.@.X.] ,.R d W y.| 4.U X                           ",
"                          X   7 w.{ ..[ =.Q d b ,.,.b d Q =.[ ..{ w.7   X                           ",
"                          X   5 w.} @.$.;.~ l T :.:.T l ~ ;.$.@.} w.5   X                           ",
"                          X   6 a.' } | } +.t.>.o.o.>.t.+.} | } ' a.6   X                           ",
"                              # * K s.6.a._ @ k 9.9.k @ _ a.6.s.K * #                               ",
"                              .   t C B V s   u 0.0.u   s V B C t   .                               ",
"                                .         X   u 0.0.u   X         .                                 ",
"                                  . .     % A L <.<.L A %     . .                                   ",
"                                    + ; - 1 6.<.@.@.<.6.1 - ; +                                     ",
"                                .   , e.<.4.q.1. . .1.q.4.<.e.,   .                                 ",
"                                .   , q.1.) < A q.q.A < ) 1.q.,   .                                 ",
"                                .   > _ I F   r ` ` r   F I _ >   .                                 ",
"                                      X X X X X X X X X X X X                                       ",
"                                                                                                    ",
"                                                                                                    ",
"                                                                                                    ",
"                                                                                                    ",
"                                                                                                    ",
"                                                                                                    ",
"                                                                                                    ",
"                                                                                                    ",
"                                                                                                    ",
"                                                                                                    ",
"                                                                                                    ",
"                                                                                                    ",
"                                                                                                    "
};
