/* XPM */
static char *_357_9f07c79301e86d1097b7fff349b83e8140ad1243f70754b67fd7d2a576edf75a[] = {
/* columns rows colors chars-per-pixel */
"50 50 106 2 ",
"   c #556600",
".  c #586700",
"X  c #576800",
"o  c #5B6A00",
"O  c #636E00",
"+  c #616F08",
"@  c #657002",
"#  c #6B7100",
"$  c #617008",
"%  c #69750D",
"&  c #757600",
"*  c #7C7900",
"=  c #6A7710",
"-  c #6E7B15",
";  c #757D15",
":  c #747F19",
">  c #837C00",
",  c #8A7F00",
"<  c #75801B",
"1  c #8B8000",
"2  c #948300",
"3  c #9B8700",
"4  c #9E8900",
"5  c #948608",
"6  c #848312",
"7  c #83881F",
"8  c #A58B00",
"9  c #AE8F00",
"0  c #AF9000",
"q  c #B29100",
"w  c #B99400",
"e  c #848D28",
"r  c #94952B",
"t  c #949A36",
"y  c #999E39",
"u  c #A6A337",
"i  c #C19700",
"p  c #C49900",
"a  c #CB9B01",
"s  c #D29E00",
"d  c #DAA200",
"f  c #CFA310",
"g  c #E3A600",
"h  c #E6A801",
"j  c #EDAA00",
"k  c #F7AD00",
"l  c #F9AF00",
"z  c #F7B006",
"x  c #FBB001",
"c  c #F7B20C",
"v  c #FAB309",
"b  c #EFB314",
"n  c #F7B513",
"m  c #F9B715",
"M  c #FAB816",
"N  c #D2AF28",
"B  c #E0B62B",
"V  c #F7BC22",
"C  c #F8BE24",
"Z  c #F7BF28",
"A  c #E6BD33",
"S  c #F7C22E",
"D  c #F7C331",
"F  c #F9C635",
"G  c #F7C73A",
"H  c #F7C93E",
"J  c #F9CA3F",
"K  c #A7AB47",
"L  c #AEB04E",
"P  c #B9B043",
"I  c #B0B14E",
"U  c #B9BA57",
"Y  c #C2B94E",
"T  c #CABD4E",
"R  c #DAC858",
"E  c #F7CB42",
"W  c #F9CE47",
"Q  c #F7D04E",
"!  c #F8D14E",
"~  c #F8D456",
"^  c #F4D65D",
"/  c #F8D75D",
"(  c #F8D85F",
")  c #CBC964",
"_  c #DAD572",
"`  c #E6D160",
"'  c #EDD968",
"]  c #F0D866",
"[  c #F8DB65",
"{  c #F6DD6A",
"}  c #F9DF6B",
"|  c #E7DF7C",
" . c #FBE06C",
".. c #EBE27E",
"X. c #F8E375",
"o. c #F0E179",
"O. c #F8E67C",
"+. c #F8E87F",
"@. c #EBE380",
"#. c #F0E783",
"$. c #F0E883",
"%. c #F8EB85",
"&. c #F7ED89",
"*. c #F8ED89",
"=. c #FCF28C",
"-. c None",
/* pixels */
"-.-.-.-.-.-.-.-.-.-.-.-.-.-.-.-.-.-.-.-.-.-.-.-.-.-.-.-.-.-.-.-.-.-.-.-.-.-.-.-.-.-.-.-.-.-.-.-.-.-.",
"-.-.-.-.-.-.-.-.-.-.-.-.-.-.-.-.-.-.-.-.-.-.-.-.-.-.-.-.-.-.-.-.-.-.-.-.-.-.-.-.-.-.-.-.-.-.-.-.-.-.",
"-.-.-.-.-.-.-.-.-.-.-.-.-.-.-.-.-.-.-.-.-.-.-.-.-.-.-.-.-.-.-.-.-.-.-.-.-.-.-.-.-.-.-.-.-.-.-.-.-.-.",
"-.-.-.-.-.-.-.-.-.-.-.-.-.-.-.-.-.-.-.-.-.-.-.-.-.-.-.-.-.-.-.-.-.-.-.-.-.-.-.-.-.-.-.-.-.-.-.-.-.-.",
"-.-.-.-.-.-.-.-.-.-.-.-.-.-.-.-.-.-.-.-.-.-.-.-.-.-.-.-.-.-.-.-.-.-.-.-.-.-.-.-.-.-.-.-.-.-.-.-.-.-.",
"-.-.-.-.-.-.-.-.-.-.-.-.-.o o 2 x x a o o & k x h # o O d x x > o o w x x 8 o o 2 x x a o o & j l x ",
"-.-.-.-.-.-.-.-.-.-.-.-.-.o X 2 x l a o o & j x g # o O d x k > o . w l l 8   o 2 l x a o o & k k k ",
"-.-.-.-.-.-.-.-.-.-.-.-.-.o o 2 l x a o o & j x g # o o d k k > o o w x l 8 o   2 l l a o o & j k k ",
"-.-.-.-.-.-.-.-.-.-.-.-.-.o o 2 l l a o o & k l g # o O s l l > X o w l l 8   o 2 l l a o o & j k k ",
"-.-.-.-.-.-.-.-.-.-.-.-.-.o X 2 l l a o o & j l g # . O d x l > o . w l x 8 o . 2 l x a o o & j x k ",
"-.-.-.-.-.-.-.-.-.-.-.-.-.# # 2 g g w o o & s h s # o O p g d * o o 9 g g 3 . o 1 g g w o o & n m n ",
"-.-.-.-.-.-.-.-.-.-.-.-.-.j j q O O O o o o O @ O o o o O O O O o . O O @ O o o o O O O o . < o.%.+.",
"-.-.-.-.-.-.-.-.-.-.-.-.x x x w . o o o o o o o o o O o o o o o o o o o o o o o o o o o o o < #.&.%.",
"-.-.-.-.-.-.-.-.-.-.-.-.-.x x w . o o o o o o o o o o o o o o o O o o o o o o o o o O o o o < $.=.*.",
"-.-.-.-.-.-.-.-.-.-.-.-.-.-.-.-.o o O o o o o o o o o o o o o o o o o o o o O o o o o o o o $ -.-.-.",
"-.-.-.-.-.-.-.-.-.-.-.-.-.-.-.-.o o o o o o O o o o o o o O o o o o o o o O o o o o o o o o o -.-.-.",
"-.-.-.-.-.-.-.-.-.-.-.-.-.-.-.-.O o o o o o o o o o O O o o O o O + o O . O o O o o O o o o o -.-.-.",
"-.-.-.-.-.-.-.-.-.-.-.-.-.-.-.-.o o o o O o o o @ p s s s s s s s s s s s s s s s s s 9 o o O -.-.-.",
"-.-.-.-.-.-.-.-.-.-.-.-.-.-.-.-.o o o O o o o o # h l l l l l l l l l l l l l l l l l s o o O -.-.-.",
"-.-.-.-.-.-.-.-.-.-.-.-.-.-.-.-.o o o . . o o . @ h l l l l k l k l l l k k l k l k l a X o o -.-.-.",
"-.-.-.-.-.-.-.-.-.-.-.-.-.o O o o o & i i i i i w 1 , , , , , , , , , , , i l l l k k h i i p -.-.-.",
"-.-.-.-.-.-.-.-.-.-.-.-.O o o o o o > l l l l l j @ . o . . . o . o o o   8 l k k k l k l l x -.-.-.",
"-.-.-.-.-.-.-.-.-.-.-.-.-.. o o .   > k k k l l g # o o o o . o . . .     8 l k k k k l l l l -.-.-.",
"=.=.=.=.=.=.=.=.=.=.=.=.) I I I I I Y Q Q E k l g # o o 4 9 9 9 9 9 9 9 9 N ! ~ Z k k k l k l -.-.-.",
"=.=.&.&.&.&.%.%.*.*.*.&.=.*.*.*.*.*.*.*.*.X.c l g # o O d x l x l l l l l W *.*.~ k x k k k x -.-.-.",
"*.*.&.=.&.&.&.=.*.=.&.&.*.=.*.*.*.*.*.*.&.X.z k g O   o s l l l k k k k k E *.*.~ k k k x x x -.-.-.",
"=.=.=.=.=.=.=.=.=.=.=.=.) I I T ~ ! Q Q ! E c l k 8 3 8 A E H H G E E G H [ *.*.~ k k k k k x -.-.-.",
"-.-.-.-.-.-.-.-.-.-.-.-.-..   2 l l k l k k k k k l l v X.*.*.*.*.*.*.*.*.*.*.*.~ k k x k k x -.-.-.",
"-.-.-.-.-.-.-.-.-.-.-.-.O o . 2 l k k k z k k c k l l z X.*.*.*.*.&.&.*.&.&.*.*.~ k k k k k l -.-.-.",
"-.-.-.-.-.-.-.-.-.-.-.-.-.o o 9 l l n Z Z Z Z Z Z z k k W / / [ / / [ / / ( [ ( G k k c S S D -.-.-.",
"-.-.-.-.-.-.-.-.-.-.-.-.-.-.-.-.l k Z *.*.*.&.&.O.n k k k k l k k k l k k k k k k k k Z *.*.=.-.-.-.",
"-.-.-.-.-.-.-.-.-.-.-.-.-.-.-.-.k k Z *.*.&.&.&.O.c k k k k k l k k k k k k k k k k k Z *.*.*.-.-.-.",
"-.-.-.-.-.-.-.-.-.-.-.-.-.-.-.-.V V E %.*.%.*.*.O.Z V V V V V V V V V V V V V V V V V H %.%.*.-.-.-.",
"-.-.-.-.-.-.-.-.-.-.-.-.-.-.-.-.%.%.%.*.*.*.%.*.*.%.%.%.%.%.%.%.%.%.%.%.%.%.%.%.%.%.%.%.&.*.=.-.-.-.",
"-.-.-.-.-.-.-.-.-.-.-.-.-.-.-.-.*.%.*.*.*.*.*.*.*.*.*.*.*.*.*.*.&.*.*.%.*.*.*.*.*.&.*.*.%.*.=.-.-.-.",
"-.-.-.-.-.-.-.-.-.-.-.-.-.-.-.-.*.%.%.X.X.X.X.X.X.X.X.X.X.X.X.X.X.X.X.X.X.X.X.X.X.X.X.O.*.*.%.-.-.-.",
"-.-.-.-.-.-.-.-.-.-.-.-.-.o o y *.*.[ n c n c c c c c c c c c c c c c c c c c c c c n Z %.*.X.v x x ",
"-.-.-.-.-.-.-.-.-.-.-.-.@ o X t *.*.[ l k k k k k k k k k k l l l l k l k l l l k k k Z *.*.X.l x k ",
"-.-.-.-.-.-.-.-.-.-.-.-.-.o o t %.O.^ h h j k k k j h h k l l k h j k l k k h j j k k Z @.@.' k l k ",
"-.-.-.-.-.-.-.-.-.-.-.-.-.o X 5 m M f & # > k l g * & & s l l , # # w l l 9 @ # 8 l v a - - 6 k k k ",
"-.-.-.-.-.-.-.-.-.-.-.-.-.o o 2 l l a o . & j l h @ o o d k k > o . w l v 8 X . 2 k l a o . & k k k ",
"-.-.-.-.-.-.-.-.-.-.-.-.-.o o 2 z l a o o & k v g @ o O d z k > o o w x v 8 . . 2 k v a o o & j z k ",
"-.-.-.-.-.-.-.-.-.-.-.-.-.a d B X.} T o o : ] } ` % o + R X.{ 7 . . P X. .u . . r X.} T o . ; ] } } ",
"-.-.-.-.-.-.-.-.-.-.-.-.-.x k G *.=.) o . : #.*.| = o + _ *.*.e o . U *.=.K . . t *.*.) o . : #.*.*.",
"-.-.-.-.-.-.-.-.-.-.-.-.-.x x F *.=.) o o < %.*.| = o $ _ =.*.e . o U =.=.K . . y =.=.) o o < #.*.*.",
"-.-.-.-.-.-.-.-.-.-.-.-.-.-.-.-.-.-.-.-.-.-.-.-.-.-.-.-.-.-.-.-.-.-.-.-.-.-.-.-.-.-.-.-.-.-.-.-.-.-.",
"-.-.-.-.-.-.-.-.-.-.-.-.-.-.-.-.-.-.-.-.-.-.-.-.-.-.-.-.-.-.-.-.-.-.-.-.-.-.-.-.-.-.-.-.-.-.-.-.-.-.",
"-.-.-.-.-.-.-.-.-.-.-.-.-.-.-.-.-.-.-.-.-.-.-.-.-.-.-.-.-.-.-.-.-.-.-.-.-.-.-.-.-.-.-.-.-.-.-.-.-.-.",
"-.-.-.-.-.-.-.-.-.-.-.-.-.-.-.-.-.-.-.-.-.-.-.-.-.-.-.-.-.-.-.-.-.-.-.-.-.-.-.-.-.-.-.-.-.-.-.-.-.-.",
"-.-.-.-.-.-.-.-.-.-.-.-.-.-.-.-.-.-.-.-.-.-.-.-.-.-.-.-.-.-.-.-.-.-.-.-.-.-.-.-.-.-.-.-.-.-.-.-.-.-."
};
