/* XPM */
static char *_fa29bfa816446af9e8ac3b8dd6c0fd0nuIvVeYYZXKppVZX[] = {
/* columns rows colors chars-per-pixel */
"50 50 106 2 ",
"   c None",
".  c #556600",
"X  c #586700",
"o  c #576800",
"O  c #5B6A00",
"+  c #636E00",
"@  c #616F08",
"#  c #657002",
"$  c #6B7100",
"%  c #617008",
"&  c #69750D",
"*  c #757600",
"=  c #7C7900",
"-  c #6A7710",
";  c #6E7B15",
":  c #757D15",
">  c #747F19",
",  c #837C00",
"<  c #8A7F00",
"1  c #75801B",
"2  c #8B8000",
"3  c #948300",
"4  c #9B8700",
"5  c #9E8900",
"6  c #948608",
"7  c #848312",
"8  c #83881F",
"9  c #A58B00",
"0  c #AE8F00",
"q  c #AF9000",
"w  c #B29100",
"e  c #B99400",
"r  c #848D28",
"t  c #94952B",
"y  c #949A36",
"u  c #999E39",
"i  c #A6A337",
"p  c #C19700",
"a  c #C49900",
"s  c #CB9B01",
"d  c #D29E00",
"f  c #DAA200",
"g  c #CFA310",
"h  c #E3A600",
"j  c #E6A801",
"k  c #EDAA00",
"l  c #F7AD00",
"z  c #F9AF00",
"x  c #F7B006",
"c  c #FBB001",
"v  c #F7B20C",
"b  c #FAB309",
"n  c #EFB314",
"m  c #F7B513",
"M  c #F9B715",
"N  c #FAB816",
"B  c #D2AF28",
"V  c #E0B62B",
"C  c #F7BC22",
"Z  c #F8BE24",
"A  c #F7BF28",
"S  c #E6BD33",
"D  c #F7C22E",
"F  c #F7C331",
"G  c #F9C635",
"H  c #F7C73A",
"J  c #F7C93E",
"K  c #F9CA3F",
"L  c #A7AB47",
"P  c #AEB04E",
"I  c #B9B043",
"U  c #B0B14E",
"Y  c #B9BA57",
"T  c #C2B94E",
"R  c #CABD4E",
"E  c #DAC858",
"W  c #F7CB42",
"Q  c #F9CE47",
"!  c #F7D04E",
"~  c #F8D14E",
"^  c #F8D456",
"/  c #F4D65D",
"(  c #F8D75D",
")  c #F8D85F",
"_  c #CBC964",
"`  c #DAD572",
"'  c #E6D160",
"]  c #EDD968",
"[  c #F0D866",
"{  c #F8DB65",
"}  c #F6DD6A",
"|  c #F9DF6B",
" . c #E7DF7C",
".. c #FBE06C",
"X. c #EBE27E",
"o. c #F8E375",
"O. c #F0E179",
"+. c #F8E67C",
"@. c #F8E87F",
"#. c #EBE380",
"$. c #F0E783",
"%. c #F0E883",
"&. c #F8EB85",
"*. c #F7ED89",
"=. c #F8ED89",
"-. c #FCF28C",
/* pixels */
"          z l l l l M +.=.=.                                            c z l l l x } =.=.          ",
"          z l l l l M $.=.=.                                            z z l l l x } =.=.          ",
"          k k l l k n O.$.$.                                            b z l l k l ] $.*.          ",
"          * * * * * * : > > % + O + O O a c c c c c c c c G -.-.-.=.-.&.o.o.] 7 * * > 1 1           ",
"          O O O O O X O O O O O O O O O e c l l l l l l c D *.*.=.&.=.*.=.=.#.; X O O X O           ",
"          O O O O O O O O O O O O O O O a z l l l l z l l D *.*.&.=.*.*.*.*.#.; O O O X O           ",
"          s s s s s e + O O O O + q s s h z l l l c l l l v A A W &.=.+.F A C s s s R _ _           ",
"          c c c z z h # O O O O O f c z z z l z l l l z l l z l C &.=.o.v z z z l x ..-.-.          ",
"          c z z z c h + O O O + + d z l l l l x l l l l l l l l C &.=.o.v z l z z z o.=.-.          ",
"          3 3 3 3 3 2 O O O O O + d z l l l l A ^ ^ ^ / ^ H l l C &.=.o.v z k 9 3 3 t y y           ",
"          O X X o o O O O O O O O d z z l l l ! =.=.=.=.=.{ l l C &.=.o.v z k $ X X X X O           ",
"          O O O X O O O O O + O + d z z z z l ! -.=.=.=.*.( l l C *.*.o.v z j $ o O X X O           ",
"          9 9 9 9 9 4 O O O O O O d l l p 9 9 B Q W { =.=.( l l C &.*.o.v l l 0 9 9 i L L           ",
"          c c z z c h + O O O O O d z l < X . 0 l l J =.=.{ l l C &.*.o.v l l z z b o.=.-.          ",
"          c c c c c h + O O + O + d z z < X X 0 l l H =.*.( l l C &.*.o.v l z z c b ..=.-.          ",
"          e e e e e 0 + O O O O O d z z < + X 0 z l W =.=.( l l C &.*.o.v l l p e e I Y Y           ",
"          o O o X O X O O O X + + d l l < O o 0 c l J =.=.( l l C &.&.o.v l k $ X O X X O           ",
"          O o O X X O O + O O O O d z l 2 o o q z l W =.=.( l l C &.=.o.v l k $ X X O X O           ",
"          , , , , , = O X O O O + d z l 2 O O 0 z l J =.=.( l l C &.=.o.v l k 3 , , 8 r r           ",
"          c l l z l h # O O O O O d z z < O X 0 c z J =.=.( l l C &.=.o.v l l l l l } *.*.          ",
"          c z l z z h # O O O X + d z z < O X 0 z z W =.=.{ l l C &.=.o.v l z z l b o.=.=.          ",
"          f f f d f s + O O O + O d z l < O X 9 h d S o.o.! l l C &.=.o.v l l d f f E ` `           ",
"          + + + + + + O X O O O O d l l < O O O + O 4 v x l l l C &.=.o.v z k * O + O @ %           ",
"          O X O X O X O + O O X + d z z < X O O X X 9 z l l l l C &.=.o.v z k $ O O O O O           ",
"          $ $ $ * # # + X O O + + p k h < $ $ $ $ # 9 z z x m v A *.=.o.v z k = # $ & & ;           ",
"          j h h h h d + O O O O X + $ $ p j h j h h k l l A +.+.+.=.=.o.v l l k h j ' X. .          ",
"          c c z z z h # O O O O + X X X p l l l z z z l l A =.=.*.*.=.o.v l l z c b ..=.=.          ",
"          l k k k l d + O O + X + X + X p l l x x x x l l A =.=.*.*.=.o.v l l k l k [ $.$.          ",
"          * * * * * * O O O O O X X O X p l l K o.o.W l l A -.=.=.*.=.o.v z k , * * : 1 1           ",
"          O O O O X X O O X + O X + + O p l l ~ =.=.! l l A =.=.&.=.=.o.v z j $ o X O X O           ",
"          O O O O O O O O + X O O O X O p l x ~ =.=.! l x A =.=.&.=.=.o.v l j * O O O O O           ",
"          s s s s s e + O X + O O O O O * , , T =.=.! l l m A A W &.=.&.{ { [ g s s R _ _           ",
"          c z z z c h + O O O O O O O O O O . P -.=.~ l l l l l C &.&.&.=.=.&.N z z ..-.=.          ",
"          c c z z c h + o O O O O + + O O O O P -.*.~ c c c c l C *.*.*.=.*.&.m z b | =.-.          ",
"          3 3 3 3 3 3 w e e             O O O P -.=.R 2 3 9             u y y 6 3 3 V G G           ",
"          o O O O o $ k c c             O O O P =.=.P o o O             O X X O O O d l z           ",
"          O O O O O $ k z c             + O O U =.-.U O O +             + O O O O O d c b           ",
"                        c                 +   _ =.=._   +                 O                         ",
"                                              -.=.=.-.                                              ",
"                                              -.=.=.-.                                              ",
"                                              -.*.*.-.                                              ",
"                                              -.*.-.-.                                              ",
"                                              -.=.=.-.                                              ",
"                                              -.=.=.-.                                              ",
"                                              -.&.&.-.                                              ",
"                                              -.=.=.-.                                              ",
"                                              -.=.=.-.                                              ",
"                                              -.=.-.-.                                              ",
"                                              -.*.*.-.                                              ",
"                                              -.*.-.-.                                              "
};
