/* XPM */
static char *_989b31ff5704c88b03beab121c351755xxnUdpa7FEhQtxw[] = {
/* columns rows colors chars-per-pixel */
"50 50 146 2 ",
"   c None",
".  c #556600",
"X  c #586700",
"o  c #576800",
"O  c #5B6A00",
"+  c #636E00",
"@  c #616F08",
"#  c #657002",
"$  c #6B7100",
"%  c #617008",
"&  c #69750D",
"*  c #757600",
"=  c #7C7900",
"-  c #6A7710",
";  c #6E7B15",
":  c #757D15",
">  c #747F19",
",  c #837C00",
"<  c #8A7F00",
"1  c #75801B",
"2  c #8B8000",
"3  c #948300",
"4  c #9B8700",
"5  c #9E8900",
"6  c #948608",
"7  c #848312",
"8  c #83881F",
"9  c #A58B00",
"0  c #AE8F00",
"q  c #AF9000",
"w  c #B29100",
"e  c #B99400",
"r  c #848D28",
"t  c #94952B",
"y  c #949A36",
"u  c #999E39",
"i  c #A6A337",
"p  c #C19700",
"a  c #C49900",
"s  c #CB9B01",
"d  c #D29E00",
"f  c #DAA200",
"g  c #CFA310",
"h  c #E3A600",
"j  c #E6A801",
"k  c #EDAA00",
"l  c #F7AD00",
"z  c #F9AF00",
"x  c #F7B006",
"c  c #FBB001",
"v  c #F7B20C",
"b  c #FAB309",
"n  c #EFB314",
"m  c #F7B513",
"M  c #F9B715",
"N  c #FAB816",
"B  c #D2AF28",
"V  c #E0B62B",
"C  c #F7BC22",
"Z  c #F8BE24",
"A  c #F7BF28",
"S  c #E6BD33",
"D  c #F7C22E",
"F  c #F7C331",
"G  c #F9C635",
"H  c #F7C73A",
"J  c #F7C93E",
"K  c #F9CA3F",
"L  c #A7AB47",
"P  c #AEB04E",
"I  c #B9B043",
"U  c #B0B14E",
"Y  c #B9BA57",
"T  c #C2B94E",
"R  c #CABD4E",
"E  c #DAC858",
"W  c #F7CB42",
"Q  c #F9CE47",
"!  c #F7D04E",
"~  c #F8D14E",
"^  c #F8D456",
"/  c #F4D65D",
"(  c #F8D75D",
")  c #F8D85F",
"_  c #CBC964",
"`  c #DAD572",
"'  c #E6D160",
"]  c #EDD968",
"[  c #F0D866",
"{  c #F8DB65",
"}  c #F6DD6A",
"|  c #FADF6C",
" . c #F8DF6C",
".. c #F9DF6B",
"X. c #E7DF7B",
"o. c #E6DF7C",
"O. c #FBE06C",
"+. c #FBE06C",
"@. c #EBE27E",
"#. c #F8E272",
"$. c #F8E273",
"%. c #F8E376",
"&. c #F8E375",
"*. c #F0E179",
"=. c #F8E57A",
"-. c #F8E67B",
";. c #F8E77E",
":. c #F8E77D",
">. c #F8E87F",
",. c #EBE380",
"<. c #F1E783",
"1. c #F0E784",
"2. c #F0E783",
"3. c #F0E883",
"4. c #F8E980",
"5. c #FAE980",
"6. c #F8EA83",
"7. c #F8EA85",
"8. c #F8EB85",
"9. c #F8EB86",
"0. c #F9EC86",
"q. c #F8EC87",
"w. c #F8EB86",
"e. c #F7ED88",
"r. c #F6EC89",
"t. c #F8EC88",
"y. c #F8ED88",
"u. c #F8EC89",
"i. c #F8ED89",
"p. c #F9ED89",
"a. c #F8ED8A",
"s. c #F8ED8B",
"d. c #F9EF8B",
"f. c #FAEE8A",
"g. c #FBEF8A",
"h. c #FAEE8B",
"j. c #FBEF8B",
"k. c #FCEF8B",
"l. c #F8EE8C",
"z. c #F8EE8D",
"x. c #FAEF8C",
"c. c #FBEF8C",
"v. c #F8ED8A",
"b. c #FCF08B",
"n. c #FCF38C",
"m. c #FBF08B",
/* pixels */
"                                              n.y.y.n.                                              ",
"                                              n.y.y.n.                                              ",
"                                              n.y.y.n.                                              ",
"                                              n.y.y.n.                                              ",
"                                              n.y.y.n.                                              ",
"                                              n.y.y.n.                                              ",
"                                              n.y.y.n.                                              ",
"                                              n.y.y.n.                                              ",
"                                              n.y.y.n.                                              ",
"                                              n.y.y.n.                                              ",
"                                              n.y.y.n.                                              ",
"                                              n.y.y.n.                                              ",
"                        O                 +   _ y.y._   O                 c                         ",
"          c c d O O O O O O             O O O P n.b.U X O +             c c k $ O O O O O           ",
"          l l d O O O X O O             O X . P k.k.U O O #             c c k $ o o O O O           ",
"          G G V 6 3 6 y y u             0 3 < R k.k.P o O O             e e w 3 3 3 3 3 3           ",
"          h.z.| z l M 4.y.k.y.y.0.C l l l z z ^ p.k.P X X + O O + O O O O X + h l z z c c           ",
"          m.h.| b z N 4.s.p.p.p.9.C l l l l l ~ p.k.P . X X O O O O O O O O + h z z z z c           ",
"          _ _ R s s g ( { { 9.y.9.W Z A m l l ~ p.k.T , , * O O O O O O O O + e s s s s s           ",
"          O O O O X $ k l m %.y.9.9.y.y.A l l ~ s.s.! l z a X O O X + O + X O O O O O O O           ",
"          O O O X O * j l v =.y.p.p.9.u.F l l ~ h.h.^ z z a X X O O O O O O O O O O o O O           ",
"          1 > : * * , k l v &.y.p.9.u.u.D l l W &.#.K l z a X + O O + X O X + * * * * * *           ",
"          <.2.[ k l l l l v %.r.p.u.u.u.D l l l x v l l z p X O O O O + O O + d l l k l l           ",
"          k.s...v l l l l v %.h.9.p.u.u.F l l l l l l z z p O O O O O O O O + h l l l l l           ",
"          o.o.' h j j l l v %.y.p.;.=.=.A l l k j j j j j e + $ $ X O + X O + d j j j j j           ",
"          ; - & $ $ = k l v %.y.9.D v m l l z 9 + $ $ $ + 3 j j a O O O O O O $ $ $ # $ $           ",
"          O O X X X $ k l v %.y.9.N l l l l l 4 X X O O O < l z d O O O O X O X X O O O O           ",
"          @ @ @ + + * k l v %.r.9.Z l l b v v 9 O + + X O 2 l z d + O X O + O + + + O + +           ",
"          ` ` E f d f l l v %.y.9.C l l ! #.#.S f f 5 o O 2 l l d O O + O O + a d f f f f           ",
"          y.h.+.b b c l l v %.y.9.C l l ( h.h.W l l w O X < l c d O O O O O + j z z z l c           ",
"          9.r. .l l l l l v &.y.9.C l l ( s.p.K l z 0 o O 2 l l d + O + O O + f l l l l c           ",
"          r r r , , 2 l l v &.9.9.C l l ( p.p.K l c 0 O O 2 l c d O O O O O + = , , , , ,           ",
"          O X O O X $ k l v %.r.7.C l l ( p.p.W l z 0 X O < l c d O O O O O O O O O O X O           ",
"          O X X o X $ k l v &.y.7.C l l ( s.s.H l l 0 X O < l l d + O O O O O O X O O O O           ",
"          Y Y I e e p l l v &.y.7.C l l ( s.p.K z z 0 X O < z z d + O O O O + 9 e e e e e           ",
"          n.n.O.v c l l l v %.y.7.C l l ( s.p.W l z 0 O O < z z d O O + O O + h c l c z c           ",
"          n.h.O.b l l l l v =.y.7.C l l ( s.p.J l z 0 . . < z z d O O O O O + h c l c l c           ",
"          L L i 9 9 q l l v =.y.7.C l l ( s.u.{ Q Q B 9 9 p l z d O O O X + + 4 0 9 9 9 9           ",
"          X X X O X $ k l v &.y.7.C l l ( s.p.p.p.z.~ z l z l z d O X X O O + X X O O X O           ",
"          O X X o o $ k l v &.y.7.C l l { z.p.p.p.s.~ z l l l z d + O + O O X O X X o o O           ",
"          y y t 3 3 9 k l v %.h.6.C l l G ^ ^ ^ ^ ^ F l l l l c d + O + O O O < 3 3 3 3 4           ",
"          k.k.| b l l l l v %.r.9.C l l l l l l l l l l l l l c d O O O O O # h c l z z l           ",
"          n.z.#.l l c l l v %.y.9.C l l l l l l l l l c c l c c d O O O O O + h c l c l c           ",
"          _ _ R s s d A A F ;.y.9.W Z A m l l l l l l l l j s s w O O O O O + e s s s s s           ",
"          O O O O o ; ,.p.9.p.p.0.0.r.y.D l l l l l l l c e O O O O O O O O O O O O O O O           ",
"          O O O O X ; ,.p.p.9.u.r.0.y.y.D l l c l c c l c a O O O O O O X O X O O O O O O           ",
"          1 > > * * 7 ] #.#.0.m.m.m.m.m.G c c c c c c c c s O O + O + % > 1 > * * * * * *           ",
"          2.2.[ k k l l b v                                             <.<.@.n l k k k l           ",
"          y.h.| x l l l l c                                             m.y.6.M l l l l c           ",
"          h.r.| l l l l l c                                             y.y.;.m l l l l c           "
};
