/* XPM */
static char *_f4a7526297b4b00bee1d8426509e7c24QpGWYpxyZZAKA19[] = {
/* columns rows colors chars-per-pixel */
"50 50 146 2 ",
"   c None",
".  c #556600",
"X  c #586700",
"o  c #576800",
"O  c #5B6A00",
"+  c #636E00",
"@  c #616F08",
"#  c #657002",
"$  c #6B7100",
"%  c #617008",
"&  c #69750D",
"*  c #757600",
"=  c #7C7900",
"-  c #6A7710",
";  c #6E7B15",
":  c #757D15",
">  c #747F19",
",  c #837C00",
"<  c #8A7F00",
"1  c #75801B",
"2  c #8B8000",
"3  c #948300",
"4  c #9B8700",
"5  c #9E8900",
"6  c #948608",
"7  c #848312",
"8  c #83881F",
"9  c #A58B00",
"0  c #AE8F00",
"q  c #AF9000",
"w  c #B29100",
"e  c #B99400",
"r  c #848D28",
"t  c #94952B",
"y  c #949A36",
"u  c #999E39",
"i  c #A6A337",
"p  c #C19700",
"a  c #C49900",
"s  c #CB9B01",
"d  c #D29E00",
"f  c #DAA200",
"g  c #CFA310",
"h  c #E3A600",
"j  c #E6A801",
"k  c #EDAA00",
"l  c #F7AD00",
"z  c #F9AF00",
"x  c #F7B006",
"c  c #FBB001",
"v  c #F7B20C",
"b  c #FAB309",
"n  c #EFB314",
"m  c #F7B513",
"M  c #F9B715",
"N  c #FAB816",
"B  c #D2AF28",
"V  c #E0B62B",
"C  c #F7BC22",
"Z  c #F8BE24",
"A  c #F7BF28",
"S  c #E6BD33",
"D  c #F7C22E",
"F  c #F7C331",
"G  c #F9C635",
"H  c #F7C73A",
"J  c #F7C93E",
"K  c #F9CA3F",
"L  c #A7AB47",
"P  c #AEB04E",
"I  c #B9B043",
"U  c #B0B14E",
"Y  c #B9BA57",
"T  c #C2B94E",
"R  c #CABD4E",
"E  c #DAC858",
"W  c #F7CB42",
"Q  c #F9CE47",
"!  c #F7D04E",
"~  c #F8D14E",
"^  c #F8D456",
"/  c #F4D65D",
"(  c #F8D75D",
")  c #F8D85F",
"_  c #CBC964",
"`  c #DAD572",
"'  c #E6D160",
"]  c #EDD968",
"[  c #F0D866",
"{  c #F8DB65",
"}  c #F6DD6A",
"|  c #F9DF6B",
" . c #E7DF7C",
".. c #FBE06C",
"X. c #EBE27E",
"o. c #F8E375",
"O. c #F0E179",
"+. c #F8E67C",
"@. c #F8E87F",
"#. c #EBE380",
"$. c #F0E784",
"%. c #F1E783",
"&. c #F0E883",
"*. c #F8E980",
"=. c #FAE980",
"-. c #F8EA83",
";. c #F8EA85",
":. c #F8EB85",
">. c #F8EB86",
",. c #F9EC86",
"<. c #F8EC87",
"1. c #FBEE86",
"2. c #F7ED88",
"3. c #F6EC89",
"4. c #F8EC88",
"5. c #F9EC88",
"6. c #F8ED88",
"7. c #F8EC89",
"8. c #F8ED89",
"9. c #F9ED89",
"0. c #F9EE89",
"q. c #FAEE89",
"w. c #F8ED8A",
"e. c #F9ED8A",
"r. c #F8ED8B",
"t. c #F9EF8B",
"y. c #FAEE8A",
"u. c #FBEF8A",
"i. c #FAEE8B",
"p. c #FBEF8B",
"a. c #FCEF8B",
"s. c #F8EE8C",
"d. c #F8EE8D",
"f. c #FAEF8C",
"g. c #FBEF8C",
"h. c #F8EF8E",
"j. c #F9EE8A",
"k. c #FBF08A",
"l. c #FBF08B",
"z. c #FBF18B",
"x. c #FCF08B",
"c. c #FBF08D",
"v. c #FCF18C",
"b. c #FCF08D",
"n. c #FCF38C",
"m. c #FCF38C",
/* pixels */
"                                                                                                    ",
"                                                                                                    ",
"                                                                                                    ",
"                                                                                                    ",
"                                                                                                    ",
"y.g.$.> O O _ v.c.y O O L v.v.Y X O r <.y.` @ O -  .a.$.1 O O _ g.g.H z c                           ",
"y.3.$.> O O _ g.g.y X X L c.v.Y X X r <.c.` @ O -  .g.#.> O O _ a.g.G z c                           ",
"| | [ > O O R | | t X X i ....I O X r } | E @ O - ' | [ > O O R ..| V s f                           ",
"l l x * O O s b z 6 X X 9 b c e o O , x b f + O $ j z x * O O s c b 3 O O                           ",
"l l k * X X a z z 3 o X 9 c c e o o , l l f O o # j l k $ O X s z z 3 X O                           ",
"l l k 7 ; ; d z z 5 $ $ w c c e $ $ 3 l z f * $ = j z l , $ $ g N M 6 o O                           ",
"l l v ] #.X.A l l k k k k l l l k k k l l l k k k l l l k k k [ @.@.y X O                           ",
"l l x o.1.>.A l l z z l l l c l l l l l l l z z z l l l z z z { y.y.y X O O                         ",
"c c b o.3.1.D v v v v v v v v v v v v v v v v v v v v v v v v { 3.y.u o O                           ",
"      1.7.<.+.o.o.o.o.o.o.o.o.o.o.o.o.o.o.o.o.o.o.o.o.o.o.o.o.>.y.y.                                ",
"      c.7.7.3.y.y.3.y.3.y.3.y.3.3.y.3.y.3.y.3.y.3.y.3.y.3.y.7.7.1.x.                                ",
"      k.>.7.>.>.>.-.;.;.<.7.<.<.1.:.:.:.>.>.>.>.-.>.7.>.y.<.7.<.>.1.                                ",
"      k.7.7.J C C C C C C C N C C C C C C Z C C A @.7.7.<.7.<.J C C                                 ",
"      x.7.>.Z l l l l l l l l l l l l l l l l l m @.7.>.<.<.<.A l l                                 ",
"      y.7.7.A l l l l l l l l l l l l l l l l l m o.7.7.7.7.<.A l c                                 ",
"      G A F m l l H ( ( ( ( ( ( ( ( ( ( ( ! l l v A F A D A F m l c 9 O #                           ",
"      c l l l l l ^ g.d.7.g.r.r.g.7.r.7.y.o.x l l l z l l l l l l l 3 o O O                         ",
"      c l z l l l ^ r.7.7.3.7.y.7.3.3.y.r.o.b z z z l l l l l l l l 3 X o                           ",
"      c l l l l l ^ r.7.{ J J J J J W J W S 9 4 9 k l z W ! ! ! ~ ~ R P U _ m.m.v.n.n.n.n.n.n.n.n.v.",
"      c c l l c l ^ y.r.Q l l l l l l z z d O X + j l v ..d.d.7.y.3.g.a.a.y.3.y.0.3.:.3.0.3.3.:.y.:.",
"      c l l l l l ^ r.h.Q z c z z z z z z f + O $ j l v o.d.d.a.c.k.g.a.a.y.:.y.:.0.0.k.:.:.k.y.y.3.",
"      c l l l l l F ~ ~ B 0 0 0 w w 0 0 w 9 + O # j l z W ! ! T P P P P U _ v.n.n.n.n.n.n.n.n.n.m.n.",
"      c l l c l l l l z 9 . X X X X O X X X O O $ j l l l l l , X o O O X                           ",
"      c c c c l l l c c 9 X o O X O O o O O X X + k z l l z l , O O O O O +                         ",
"      p e p j l l l l c e < 2 2 < 2 2 < < < < < < e p p p p p * O O # O +                           ",
"      O O O s c z l l l l z l z l z z l z z z z j $ O O O O O O O O                                 ",
"      O O O s c z z c z z c c z z z z z z z z z j $ O O O O O O O O                                 ",
"      # O O w d d d d d d d d d d d d d d d d d a # O + O + X O O O                                 ",
"      O O O O + O O O + O + O O O + + O O + O + O O O O O O O O O +                                 ",
"      O O O + O O O O O O O O O O O O O O O O O O O O O X O O O O O                                 ",
"      % O O O O O + O O O O + O O O O O O O O O + O O O + O O O O O                                 ",
"x.m.&.1 O O O O O O O O O O O O O O O O O O O O O O O O O O O O + O e c c                           ",
":.0.#.1 O O O O O O O O O O O O O O O O O O O O O O O + O O O O O X e c c c                         ",
"@.@.X.1 X O + + # + O O O + # + O O + + + + O O O + + + + O + + + + e k k                           ",
"M M m * O O e f h < O X 4 h h 0 O O = f h s + O + d j d $ O X e h f 3 $ $                           ",
"l l l * O O s c z 3 X o 9 c c e O o , l c f O O $ j z l * O O s c c 3 o O                           ",
"l l k * O O s z z 3 O X 9 z z e o O , c l f + O # j z k * O O s z z 3 o O                           ",
"l l k * O O s z z 3 X X 0 z c e O o , l c f O O $ j z k * O O s z z 3 O O                           ",
"l l k * O O s c z 3 X O 9 z z e o o , l l f + O + j z k * O O s z c 3 O O                           ",
"c z l * O O s c c 3 O O 0 c c e O O , c c f + O $ j c l * O O s c c 3 O O                           ",
"                                                                                                    ",
"                                                                                                    ",
"                                                                                                    ",
"                                                                                                    ",
"                                                                                                    "
};
