/* XPM */
static char *_8f6fee9298f4b74d54ddbef53b2e31632JeCdDEU7eg27cf[] = {
/* columns rows colors chars-per-pixel */
"50 50 87 1 ",
"  c #BDBEBD",
". c #BDBEBD",
"X c #BDBEBD",
"o c #BBBCBB",
"O c #BBBCBB",
"+ c #BBBCBB",
"@ c #BDBEBD",
"# c #BDBEBD",
"$ c #BBBCBB",
"% c #BEBFBE",
"& c #B4B5B4",
"* c #878987",
"= c #868786",
"- c #8A8C8A",
"; c #B8BAB8",
": c #BDBEBD",
"> c #868886",
", c #BEBFBE",
"< c #B2B3B2",
"1 c #7C7E7C",
"2 c #7A7C7A",
"3 c #808280",
"4 c #B8B9B8",
"5 c #BDBEBD",
"6 c #7A7C7A",
"7 c #BDBEBD",
"8 c #BDBEBD",
"9 c #BDBEBD",
"0 c #BDBEBD",
"q c #BDBEBD",
"w c #BEBFBE",
"e c #B2B3B2",
"r c #7D7F7D",
"t c #7B7D7B",
"y c #808280",
"u c #B8B9B8",
"i c #BDBEBD",
"p c #7B7D7B",
"a c #BDBEBD",
"s c #E1E1E1",
"d c #EEEFEE",
"f c #EDEEED",
"g c #EFF0EF",
"h c gray83",
"j c #8C8E8C",
"k c #8D8E8D",
"l c #8A8B8A",
"z c #7C7E7C",
"x c white",
"c c gainsboro",
"v c #7A7C7A",
"b c #7A7C7A",
"n c #7A7C7A",
"m c #7B7D7B",
"M c gainsboro",
"N c #7B7D7B",
"B c #BDBEBD",
"V c #DDDDDD",
"C c gray87",
"Z c #C2C3C2",
"A c #7B7D7B",
"S c #7A7C7A",
"D c #7B7D7B",
"F c #7B7D7B",
"G c #BEBFBE",
"H c #B2B3B2",
"J c #8A8B8A",
"K c #7A7C7A",
"L c #BBBCBB",
"P c #878987",
"I c #7C7E7C",
"U c #7D7F7D",
"Y c #7A7C7A",
"T c #7B7D7B",
"R c #808280",
"E c #B8B9B8",
"W c #8A8C8A",
"Q c #808280",
"! c #808280",
"~ c #858785",
"^ c #B8B9B8",
"/ c #BDBEBD",
"( c #B8B9B8",
") c #B8B9B8",
"_ c #BDBEBD",
"` c #BDBEBD",
"' c #BDBEBD",
/* pixels */
"                                                  ",
"                                                  ",
"                    .XoO+@#                  .Xo$$",
"                    %&*=-;:                  %&*>>",
"                    ,<12345                  ,<166",
"      7888888888890qwertyui    7888888888890qwerpp",
"     asdfffffffffghjklztyui   asdfffffffffghjklzpp",
"     8fxxxxxxxxxxxcvbnmtyui   8fxxxxxxxxxxxcvbnmpp",
"     8fxxxxxxxxxxxMNppptyui   8fxxxxxxxxxxxMNppppp",
"     8fxxxxxxxxxxxMNppptyui   8fxxxxxxxxxxxMNppppp",
"     8fxxxxxxxxxxxMNppptyui   8fxxxxxxxxxxxMNppppp",
"     8fxxxxxxxxxxxMNppptyui   8fxxxxxxxxxxxMNppppp",
"     8fxxxxxxxxxxxMNppptyui   8fxxxxxxxxxxxMNppppp",
"     8fxxxxxxxxxxxMNppptyui   8fxxxxxxxxxxxMNppppp",
"     8fxxxxxxxxxxxMNppptyui   8fxxxxxxxxxxxMNppppp",
"     8fxxxxxxxxxxxMNppptyui   8fxxxxxxxxxxxMNppppp",
"     8fxxxxxxxxxxxMNppptyui   8fxxxxxxxxxxxMNppppp",
"     8fxxxxxxxxxxxMNppptyui   8fxxxxxxxxxxxMNppppp",
"     BhVMMMMMMMMMCZAppptyui   BhVMMMMMMMMMCZAppppp",
"     qjSNNNNNNNNNDFpppptyui   qjSNNNNNNNNNDFpppppp",
"  .%Gwkbppppppppppppppptyui.%Gwkbppppppppppppppppp",
"  X&<HJKppppppppppppppptyuiX&<HJKppppppppppppppppp",
"  LPIUzmppppppppppppppptyuiLPIUzmppppppppppppppppp",
"  O=YttttttttttttttttttTREiO=Ytttttttttttttttttttt",
"  +WQyyyyyyyyyyyyyyyyyy!~^/+WQyyyyyyyyyyyyyyyyyyyy",
"  @;(uuuuuuuuuuuuuuuuuu)^_`@;(uuuuuuuuuuuuuuuuuuuu",
"  #'iiiiiiiiiiiiiiiiiiii/` #'iiiiiiiiiiiiiiiiiiiii",
"                    .XoO+@#                  .Xo$$",
"                    %&*=-;:                  %&*>>",
"                    ,<12345                  ,<166",
"      7888888888890qwertyui    7888888888890qwerpp",
"     asdfffffffffghjklztyui   asdfffffffffghjklzpp",
"     8fxxxxxxxxxxxcvbnmtyui   8fxxxxxxxxxxxcvbnmpp",
"     8fxxxxxxxxxxxMNppptyui   8fxxxxxxxxxxxMNppppp",
"     8fxxxxxxxxxxxMNppptyui   8fxxxxxxxxxxxMNppppp",
"     8fxxxxxxxxxxxMNppptyui   8fxxxxxxxxxxxMNppppp",
"     8fxxxxxxxxxxxMNppptyui   8fxxxxxxxxxxxMNppppp",
"     8fxxxxxxxxxxxMNppptyui   8fxxxxxxxxxxxMNppppp",
"     8fxxxxxxxxxxxMNppptyui   8fxxxxxxxxxxxMNppppp",
"     8fxxxxxxxxxxxMNppptyui   8fxxxxxxxxxxxMNppppp",
"     8fxxxxxxxxxxxMNppptyui   8fxxxxxxxxxxxMNppppp",
"     8fxxxxxxxxxxxMNppptyui   8fxxxxxxxxxxxMNppppp",
"     8fxxxxxxxxxxxMNppptyui   8fxxxxxxxxxxxMNppppp",
"     BhVMMMMMMMMMCZAppptyui   BhVMMMMMMMMMCZAppppp",
"     qjSNNNNNNNNNDFpppptyui   qjSNNNNNNNNNDFpppppp",
"  .%Gwkbppppppppppppppptyui.%Gwkbppppppppppppppppp",
"  X&<HJKppppppppppppppptyuiX&<HJKppppppppppppppppp",
"  LPIUzmppppppppppppppptyuiLPIUzmppppppppppppppppp",
"  $>6pppppppppppppppppptyui$>6pppppppppppppppppppp",
"  $>6pppppppppppppppppptyui$>6pppppppppppppppppppp"
};
