/* XPM */
static char *_8445d6070724341a8a6056ab06d9b6bwfRHVFxoZpFAMqNu[] = {
/* columns rows colors chars-per-pixel */
"50 50 58 1 ",
"  c #CEA75B",
". c #CFA85B",
"X c #D4AC5D",
"o c #D8AF5F",
"O c #D9B05F",
"+ c #CFAA63",
"@ c #CFAD6D",
"# c #D3AD62",
"$ c #D1AE6D",
"% c #D7B065",
"& c #DBB261",
"* c #D7B26C",
"= c #D8B269",
"- c #DBB468",
"; c #DDB568",
": c #D8B36E",
"> c #DBB56E",
", c #DFB86D",
"< c #CFAE72",
"1 c #CFAE73",
"2 c #D0AF71",
"3 c #CFB07A",
"4 c #CFB17E",
"5 c #D5B271",
"6 c #D4B272",
"7 c #D0B075",
"8 c #D5B374",
"9 c #D8B472",
"0 c #DCB771",
"q c #D9B677",
"w c #D3B378",
"e c #D2B37B",
"r c #D3B47B",
"t c #D5B478",
"y c #D2B37D",
"u c #D1B27E",
"i c #E0B561",
"p c #E2B762",
"a c #E3B762",
"s c #E3B763",
"d c #E3B863",
"f c #E4B863",
"g c #E5B963",
"h c #E6BA63",
"j c #E2B865",
"k c #E7BB64",
"l c #E4BA67",
"z c #E0B769",
"x c #E1B96B",
"c c #E4B968",
"v c #CFB280",
"b c #CEB385",
"n c #CFB385",
"m c #CEB386",
"M c #D0B380",
"N c #D0B381",
"B c #D0B382",
"V c #D0B384",
/* pixels */
"..  ilhhi&&&o.ohhhh&&&&&&&&&&&oX &h&&&&o ohi&O.Xdh",
".XXXilhhi&&&o.odddi&OO&&&&&%&&&XX&h&&&&O oli&&.Xjl",
"oo&#wy#X&hdj&&oXXX&iOXXdjry#Xid&oXX&li&&ooXoh&X+yr",
"&&&&wv@ &hlhi&o  .Xki.XdlMM#.il&&XXOki&&&o oh&.#4n",
"XXih-=&%&&OX&h&o*37&&.Xdl-%%oXX&h&&&iO%:y5Oooo&i-=",
" Xik&&&O&&o.Ohd&*nw&&.Xdh&O&&XX&ki&&&OO:V2&o Xdd&&",
" Xil&&id&&&o&&&&%=-&# Xhh&&&O..Ol&&XXXX%,xk&oooojd",
"  hl&&hl&&&&&&&&&&&&%XXih&&&OXXdk&&X X ollhhOo.Xhl",
" XihXXoXOhOo&ii&oXoiiOoXoiddi&o&&&&OOOOooooOhi&i&i",
" XiiXX XOko Ohj&o ohhOOXXdhhl&&&&&&&&&&X   Xlkhl&&",
" XilOoo#:q%ooOoh&ooo&&&Oo&&OOii&&&%oX&i&ooooii&i&&",
" Xhk&&&&wn5&o Ohi&o oll&&&&X.hl&OOOXXXkhOO&&&&&&&&",
" Xhh&&&&:5%&o Ohi&o.Xhj&&&Ooo&i&&&&oXoO&&&&&Xo&i&&",
"  il&&&&&&%&X olj&o.Xhh&&&&&O&&&&&&&&o okh&o Xhh&&",
"@$&&ii&&&&XXoOOh&&&XoO&&&&O::-&Oo&i&&oX&h&&oXXlh&&",
"4v+.ili&&&XXOlhO&&&&O.odh&-4n%&XX&k&&&&&&&&o Xhj&&",
"16 X&hoo&ioXOOiO&iO&OXXdhO-5t-&oXO&&i&oO&&&o Xjl&&",
"&&X ihoX&k&&oXOlllk&#XXihO&&&&&OOX.&kO Okh&o Xhi&O",
"&&X.ilOXhli&oXoOiOi&&X#jhOo&i&&&&XXOk&Xoi&&&X&,x&i",
"&&XXil&&dh&&&&o XXOki&&&OX ihll&&X &ki&oXOld&=Mylk",
"&#XX;x&&&iOi&&oXX.o&i&&=%XXOi&i&&OoOdi&oXX&i&-ytjh",
"&&&&wV9&XX&hi&&&&&o.X&%vy-OXXXXiklho.OhdOo.olj&&&&",
"&&#&ty=OOXOk&&&&&ooXo&%88-OoX.XOiij#+&d&&OXXhh&X&&",
"&OXXjc&&o&&&&&&&o oii&&-%&O#&&OO.XX14@.Ohd&&OOXXhl",
"%OX.&l&O-&&&#&&&O oid&&O&&&&&&&XX.X1n$.oki&&&o Xhh",
"&O..dhi&8V:&&.ohiOoXoh&Xo&h&&&&oOOo&-&&XXohl&o Xih",
"O&XX&di&1v:&X odi&&.oiiXX&h-&&O&O&&&O&Oo oii&# Xjc",
"&&ooXoil##&i&&oXOli&O&&&oXXw4+X&lhli&&&&ooXohiX tM",
"&&&&X.OhOXoh&&o olho&&&&&X 4n+X&hdh&&&OO&%.ojiX+VM",
"&&&&X dk&&oo&d&.ohd&oXXi&&#yn%&XXXXo&oXoiioO&& Xxx",
"&#&&XXOh&&o.OlO.ohd&&.Xhl&-yv-OX..Xo&XXoli&&&& Xik",
"&&w8;iiiOOXXOk&ooooh&o&hh&-%%%&XXoO&&oooX&ai&&X&X&",
"&=yvxh&&&&o Oh&&o.oli&&ha&&&&&&X &hi&&&# ocl&&&&  ",
"&&%*oXid&&O%ooOhO.Xhh&&X&ii&&&&X &k:2:&& #8q&&&#X ",
"&&&&X dhi&&&o Ohi.Och&&XXfli&#&XXikqn8oo $nM&&&OX ",
"&&&&XXOl&&&&oO&iO&X&&&&X&ah&&&&X.&k=$#XXX#:#&&&&o#",
"%&&&XXih&&&&&&&&&&&&&&&&&ic&&&&X &kOXX.X%&&&&&&&&&",
"X#&ioX&j&&oXO&&&=8:&&&&55&&ii&&&ooO&oXooo&&oX#5*&&",
"X ih&&&&&&X OkjO:Vy&&&-vMX ik&&&&X Oki&&o&&o #VM&&",
"XX&&&i&&&&XX&hd&=1$&&&;82#X00ai&&X oki&&&O#&&#2$&&",
"&&X ik&&&&X &hd&o ohi&&&&&=yMxl&&X.Oka&&&o.ohiXXhh",
"&&XX&&ii&&oXO&&&&Xohh&&&&&&28xki&oXO&&&&&o.Xli Xhl",
"#O-&O ih&&&&XXOhi&&ka&&&&&& X&j&&&&XX&ka&o.oka Xlh",
"&&%%oX&ld&&&XXOkh&&&i&&&&ooXOih&&&=#+&&&&o.XhiXXii",
"&-yv%&&&ih&&X oka&o ohh&o.X&hO&&&&&2V$ X&o #ha&&&&",
"&&83#o&&hli&o.&&i&&Xolh&&Xo&io&&&&&5y$X&&o.#zz&&&&",
"&&X .Xih&&&&&&o.ohh&OhlO&&OX XXik&&&&&#&&o +nw&&&&",
"&#XXXX&l&&&&&OoXOci&&ii&&&oX XX&li&&&&o&&o #y8&&&&",
"&&&#&&X &jhhi&&&&&&&&&&&&&&&&&oXX&lio&&&&o.oaa&&&&",
"&&&&&&X &llhi&&&&&&&&&&&&&#&&&& X&hi&&&&&o Xca&&&&"
};
